<?xml version="1.0" encoding="UTF-8" standalone="no"?>
<!-- Created with Inkscape (http://www.inkscape.org/) -->
<svg
   xmlns:dc="http://purl.org/dc/elements/1.1/"
   xmlns:cc="http://creativecommons.org/ns#"
   xmlns:rdf="http://www.w3.org/1999/02/22-rdf-syntax-ns#"
   xmlns:svg="http://www.w3.org/2000/svg"
   xmlns="http://www.w3.org/2000/svg"
   xmlns:sodipodi="http://sodipodi.sourceforge.net/DTD/sodipodi-0.dtd"
   xmlns:inkscape="http://www.inkscape.org/namespaces/inkscape"
   width="210mm"
   height="297mm"
   id="svg3063"
   sodipodi:version="0.32"
   inkscape:version="0.46"
   sodipodi:docbase="/home/zebuline/projets/bisonvert/trunk/app/media/img/rating"
   sodipodi:docname="rating.svg"
   inkscape:output_extension="org.inkscape.output.svg.inkscape">
  <defs
     id="defs3065">
    <inkscape:perspective
       sodipodi:type="inkscape:persp3d"
       inkscape:vp_x="0 : 526.18109 : 1"
       inkscape:vp_y="0 : 1000 : 0"
       inkscape:vp_z="744.09448 : 526.18109 : 1"
       inkscape:persp3d-origin="372.04724 : 350.78739 : 1"
       id="perspective14037" />
    <clipPath
       clipPathUnits="userSpaceOnUse"
       id="clipPath16157">
      <rect
         style="opacity:1;fill:#c5dbfc;fill-opacity:1;fill-rule:evenodd;stroke:none;stroke-width:1.01199996;stroke-linecap:round;stroke-linejoin:round;stroke-miterlimit:4;stroke-dasharray:none;stroke-dashoffset:0;stroke-opacity:1"
         id="rect16159"
         width="69.283157"
         height="119.0858"
         x="-13.348855"
         y="16.753712"
         transform="matrix(0.9998877,1.4986832e-2,-1.6347573e-2,0.9998664,0,0)" />
    </clipPath>
    <clipPath
       clipPathUnits="userSpaceOnUse"
       id="clipPath16165">
      <rect
         style="opacity:1;fill:#c5dbfc;fill-opacity:1;fill-rule:evenodd;stroke:none;stroke-width:1.01199996;stroke-linecap:round;stroke-linejoin:round;stroke-miterlimit:4;stroke-dasharray:none;stroke-dashoffset:0;stroke-opacity:1"
         id="rect16167"
         width="48.42374"
         height="108.2866"
         x="6.1520948"
         y="27.096184"
         transform="matrix(0.9998877,1.4986833e-2,-1.6347576e-2,0.9998664,0,0)" />
    </clipPath>
  </defs>
  <sodipodi:namedview
     id="base"
     pagecolor="#ffffff"
     bordercolor="#666666"
     borderopacity="1.0"
     inkscape:pageopacity="0.0"
     inkscape:pageshadow="2"
     inkscape:zoom="1"
     inkscape:cx="342.68197"
     inkscape:cy="957"
     inkscape:document-units="px"
     inkscape:current-layer="layer1"
     inkscape:window-width="1272"
     inkscape:window-height="722"
     inkscape:window-x="0"
     inkscape:window-y="0"
     showgrid="false" />
  <metadata
     id="metadata3068">
    <rdf:RDF>
      <cc:Work
         rdf:about="">
        <dc:format>image/svg+xml</dc:format>
        <dc:type
           rdf:resource="http://purl.org/dc/dcmitype/StillImage" />
      </cc:Work>
    </rdf:RDF>
  </metadata>
  <g
     inkscape:label="Calque 1"
     inkscape:groupmode="layer"
     id="layer1">
    <g
       id="g9182"
       inkscape:export-filename="/home/zebuline/deuxpas/trunk/deuxpas/static/img/eval/etoiles30_p.png"
       inkscape:export-xdpi="33.901176"
       inkscape:export-ydpi="33.901176"
       transform="translate(-1.0003778,55.246005)" />
    <polygon
       inkscape:export-ydpi="90"
       inkscape:export-xdpi="90"
       inkscape:export-filename="/home/sbe/svn/bisonvert/trunk/app/media/img/rating/lmark1.png"
       sodipodi:type="star"
       style="font-size:12px;fill:#2a6cca;fill-opacity:1;fill-rule:evenodd;stroke:#2a6cca;stroke-width:10.39525985999999946;stroke-linecap:round;stroke-linejoin:round;stroke-miterlimit:4;stroke-dasharray:none;stroke-opacity:1"
       id="polygon4213"
       sodipodi:sides="5"
       sodipodi:cx="53.149605"
       sodipodi:cy="83.927162"
       sodipodi:r1="45.15839"
       sodipodi:r2="22.579195"
       sodipodi:arg1="-0.29341909"
       sodipodi:arg2="0.33489946"
       points="96.37795,70.86614 74.47437,91.34836 78.92966,121.0037 52.68134,106.5015 25.85421,119.9027 31.53543,90.45767 10.50006,69.08476 40.25957,65.38890 54.08613,38.77848 66.79730,65.93938 96.37795,70.86614 "
       transform="matrix(0.1242778,-1.955e-3,2.0319119e-3,0.1304332,41.074143,31.776818)"
       inkscape:flatsided="false"
       inkscape:rounded="0"
       inkscape:randomized="0"
       d="M 96.377951,70.866142 L 74.474376,91.348361 L 78.929667,121.00369 L 52.681341,106.5015 L 25.854213,119.90273 L 31.535431,90.457672 L 10.500063,69.084764 L 40.259574,65.3889 L 54.086131,38.778484 L 66.797301,65.939377 L 96.377951,70.866142 z" />
    <polygon
       inkscape:export-ydpi="90"
       inkscape:export-xdpi="90"
       inkscape:export-filename="/home/sbe/svn/bisonvert/trunk/app/media/img/rating/lmark0.png"
       sodipodi:type="star"
       style="font-size:12px;fill:#c5dbfc;fill-opacity:1;fill-rule:evenodd;stroke:#7293c1;stroke-width:10.39525889999999997;stroke-linecap:round;stroke-linejoin:round;stroke-miterlimit:4;stroke-dasharray:none;stroke-opacity:1"
       id="polygon3027"
       sodipodi:sides="5"
       sodipodi:cx="53.149605"
       sodipodi:cy="83.927162"
       sodipodi:r1="45.15839"
       sodipodi:r2="22.579195"
       sodipodi:arg1="-0.29341909"
       sodipodi:arg2="0.33489946"
       points="96.37795,70.86614 74.47437,91.34836 78.92966,121.0037 52.68134,106.5015 25.85421,119.9027 31.53543,90.45767 10.50006,69.08476 40.25957,65.38890 54.08613,38.77848 66.79730,65.93938 96.37795,70.86614 "
       transform="matrix(0.1242778,-1.9550002e-3,2.0319119e-3,0.1304332,132.09202,34.776816)"
       inkscape:flatsided="false"
       inkscape:rounded="0"
       inkscape:randomized="0"
       d="M 96.377951,70.866142 L 74.474376,91.348361 L 78.929667,121.00369 L 52.681341,106.5015 L 25.854213,119.90273 L 31.535431,90.457672 L 10.500063,69.084764 L 40.259574,65.3889 L 54.086131,38.778484 L 66.797301,65.939377 L 96.377951,70.866142 z" />
    <polygon
       inkscape:export-ydpi="90"
       inkscape:export-xdpi="90"
       inkscape:export-filename="/home/sbe/svn/bisonvert/trunk/app/media/img/rating/mark1.png"
       sodipodi:type="star"
       style="font-size:12px;fill:#2a6cca;fill-opacity:1;fill-rule:evenodd;stroke:#2a6cca;stroke-width:7.56205845000000032;stroke-linecap:round;stroke-linejoin:round;stroke-miterlimit:4;stroke-dasharray:none;stroke-opacity:1"
       id="polygon14568"
       sodipodi:sides="5"
       sodipodi:cx="53.149605"
       sodipodi:cy="83.927162"
       sodipodi:r1="45.15839"
       sodipodi:r2="22.579195"
       sodipodi:arg1="-0.29341909"
       sodipodi:arg2="0.33489946"
       points="96.37795,70.86614 74.47437,91.34836 78.92966,121.0037 52.68134,106.5015 25.85421,119.9027 31.53543,90.45767 10.50006,69.08476 40.25957,65.38890 54.08613,38.77848 66.79730,65.93938 96.37795,70.86614 "
       transform="matrix(0.1708397,-2.6874605e-3,2.7931882e-3,0.1793013,41.166104,77.48617)"
       inkscape:flatsided="false"
       inkscape:rounded="0"
       inkscape:randomized="0"
       d="M 96.377951,70.866142 L 74.474376,91.348361 L 78.929667,121.00369 L 52.681341,106.5015 L 25.854213,119.90273 L 31.535431,90.457672 L 10.500063,69.084764 L 40.259574,65.3889 L 54.086131,38.778484 L 66.797301,65.939377 L 96.377951,70.866142 z" />
    <polygon
       inkscape:export-ydpi="90"
       inkscape:export-xdpi="90"
       inkscape:export-filename="/home/sbe/svn/bisonvert/trunk/app/media/img/rating/mark0.png"
       sodipodi:type="star"
       style="font-size:12px;fill:#c5dbfc;fill-opacity:1;fill-rule:evenodd;stroke:#7293c1;stroke-width:7.56205225;stroke-linecap:round;stroke-linejoin:round;stroke-miterlimit:4;stroke-dasharray:none;stroke-opacity:1"
       id="polygon14578"
       sodipodi:sides="5"
       sodipodi:cx="53.149605"
       sodipodi:cy="83.927162"
       sodipodi:r1="45.15839"
       sodipodi:r2="22.579195"
       sodipodi:arg1="-0.29341909"
       sodipodi:arg2="0.33489946"
       points="96.37795,70.86614 74.47437,91.34836 78.92966,121.0037 52.68134,106.5015 25.85421,119.9027 31.53543,90.45767 10.50006,69.08476 40.25957,65.38890 54.08613,38.77848 66.79730,65.93938 96.37795,70.86614 "
       transform="matrix(0.1708398,-2.6874627e-3,2.7931901e-3,0.1793014,132.18397,80.486153)"
       inkscape:flatsided="false"
       inkscape:rounded="0"
       inkscape:randomized="0"
       d="M 96.377951,70.866142 L 74.474376,91.348361 L 78.929667,121.00369 L 52.681341,106.5015 L 25.854213,119.90273 L 31.535431,90.457672 L 10.500063,69.084764 L 40.259574,65.3889 L 54.086131,38.778484 L 66.797301,65.939377 L 96.377951,70.866142 z" />
    <g
       id="g16183"
       inkscape:export-filename="/home/sbe/svn/bisonvert/trunk/app/media/img/rating/lmark0.5.png"
       inkscape:export-xdpi="90"
       inkscape:export-ydpi="90">
      <g
         id="g16169">
        <g
           id="g14563"
           inkscape:export-filename="/home/sbe/svn/bisonvert/trunk/app/media/img/rating/lmark0.5.png"
           inkscape:export-xdpi="89.999084"
           inkscape:export-ydpi="89.999084">
          <path
             id="path4233"
             d="M 91.368919,40.299276 L 91.421232,40.189316 L 93.056032,43.707187 L 96.742022,44.291978 L 96.742022,44.291978 L 94.061685,47.006391 L 94.675596,50.865762 L 91.384257,49.025491 L 91.371295,49.032549"
             style="font-size:12px;fill:#c5dbfc;fill-opacity:1;fill-rule:evenodd;stroke:#7293c1;stroke-width:1.32366896000000001;stroke-linecap:round;stroke-linejoin:round;stroke-miterlimit:4;stroke-dasharray:none;stroke-opacity:1" />
          <path
             id="path4235"
             d="M 91.370495,49.028235 L 88.076883,50.82161 L 88.723062,46.969847 L 86.065576,44.223203 L 89.756275,43.682954 L 91.368118,40.294962"
             style="font-size:12px;fill:#2a6cca;fill-opacity:1;fill-rule:evenodd;stroke:#7293c1;stroke-width:1.32366896000000001;stroke-linecap:round;stroke-linejoin:round;stroke-miterlimit:4;stroke-dasharray:none;stroke-opacity:1" />
          <path
             id="path4237"
             d="M 91.399557,40.777916 L 91.376398,48.789683"
             style="fill:none;fill-opacity:1;fill-rule:evenodd;stroke:#7293c1;stroke-width:0.43099996;stroke-linecap:butt;stroke-linejoin:miter;stroke-miterlimit:4;stroke-dasharray:none;stroke-opacity:1" />
        </g>
        <polygon
           inkscape:export-ydpi="90"
           inkscape:export-xdpi="90"
           inkscape:export-filename="/home/sbe/svn/bisonvert/trunk/app/media/img/rating/lmark1.png"
           sodipodi:type="star"
           style="font-size:12px;fill:#2a6cca;fill-opacity:1;fill-rule:evenodd;stroke:#2a6cca;stroke-width:10.39525986;stroke-linecap:round;stroke-linejoin:round;stroke-miterlimit:4;stroke-dasharray:none;stroke-opacity:1"
           id="polygon15640"
           sodipodi:sides="5"
           sodipodi:cx="53.149605"
           sodipodi:cy="83.927162"
           sodipodi:r1="45.15839"
           sodipodi:r2="22.579195"
           sodipodi:arg1="-0.29341909"
           sodipodi:arg2="0.33489946"
           points="96.37795,70.86614 74.47437,91.34836 78.92966,121.0037 52.68134,106.5015 25.85421,119.9027 31.53543,90.45767 10.50006,69.08476 40.25957,65.38890 54.08613,38.77848 66.79730,65.93938 96.37795,70.86614 "
           transform="matrix(0.1242778,-1.955e-3,2.0319119e-3,0.1304332,84.565985,35.370413)"
           inkscape:flatsided="false"
           inkscape:rounded="0"
           inkscape:randomized="0"
           d="M 96.377951,70.866142 L 74.474376,91.348361 L 78.929667,121.00369 L 52.681341,106.5015 L 25.854213,119.90273 L 31.535431,90.457672 L 10.500063,69.084764 L 40.259574,65.3889 L 54.086131,38.778484 L 66.797301,65.939377 L 96.377951,70.866142 z"
           clip-path="url(#clipPath16157)" />
      </g>
    </g>
    <g
       id="g16191"
       inkscape:export-filename="/home/sbe/svn/bisonvert/trunk/app/media/img/rating/mark0.5.png"
       inkscape:export-xdpi="90"
       inkscape:export-ydpi="90">
      <g
         id="g16176">
        <g
           id="g14570"
           transform="matrix(1.3333206,0,0,1.3333206,-27.833373,34.389554)"
           inkscape:export-filename="/home/sbe/svn/bisonvert/trunk/app/media/img/rating/mark0.5.png"
           inkscape:export-xdpi="92.552261"
           inkscape:export-ydpi="92.552261">
          <path
             id="path14572"
             d="M 91.368919,40.299276 L 91.421232,40.189316 L 93.056032,43.707187 L 96.742022,44.291978 L 96.742022,44.291978 L 94.061685,47.006391 L 94.675596,50.865762 L 91.384257,49.025491 L 91.371295,49.032549"
             style="font-size:12px;fill:#c5dbfc;fill-opacity:1;fill-rule:evenodd;stroke:#7293c1;stroke-width:0.99276125;stroke-linecap:round;stroke-linejoin:round;stroke-miterlimit:4;stroke-dasharray:none;stroke-opacity:1" />
          <path
             id="path14574"
             d="M 91.370495,49.028235 L 88.076883,50.82161 L 88.723062,46.969847 L 86.065576,44.223203 L 89.756275,43.682954 L 91.368118,40.294962"
             style="font-size:12px;fill:#2a6cca;fill-opacity:1;fill-rule:evenodd;stroke:#7293c1;stroke-width:0.99276125;stroke-linecap:round;stroke-linejoin:round;stroke-miterlimit:4;stroke-dasharray:none;stroke-opacity:1" />
          <path
             id="path14576"
             d="M 91.399557,40.777916 L 91.376398,48.789683"
             style="fill:none;fill-opacity:1;fill-rule:evenodd;stroke:#7293c1;stroke-width:0.32325307;stroke-linecap:butt;stroke-linejoin:miter;stroke-miterlimit:4;stroke-dasharray:none;stroke-opacity:1" />
        </g>
        <polygon
           inkscape:export-ydpi="90"
           inkscape:export-xdpi="90"
           inkscape:export-filename="/home/sbe/svn/bisonvert/trunk/app/media/img/rating/mark1.png"
           sodipodi:type="star"
           style="font-size:12px;fill:#2a6cca;fill-opacity:1;fill-rule:evenodd;stroke:#2a6cca;stroke-width:7.56205845;stroke-linecap:round;stroke-linejoin:round;stroke-miterlimit:4;stroke-dasharray:none;stroke-opacity:1"
           id="polygon16161"
           sodipodi:sides="5"
           sodipodi:cx="53.149605"
           sodipodi:cy="83.927162"
           sodipodi:r1="45.15839"
           sodipodi:r2="22.579195"
           sodipodi:arg1="-0.29341909"
           sodipodi:arg2="0.33489946"
           points="96.37795,70.86614 74.47437,91.34836 78.92966,121.0037 52.68134,106.5015 25.85421,119.9027 31.53543,90.45767 10.50006,69.08476 40.25957,65.38890 54.08613,38.77848 66.79730,65.93938 96.37795,70.86614 "
           transform="matrix(0.1708397,-2.6874605e-3,2.7931882e-3,0.1793013,84.72614,80.988919)"
           inkscape:flatsided="false"
           inkscape:rounded="0"
           inkscape:randomized="0"
           d="M 96.377951,70.866142 L 74.474376,91.348361 L 78.929667,121.00369 L 52.681341,106.5015 L 25.854213,119.90273 L 31.535431,90.457672 L 10.500063,69.084764 L 40.259574,65.3889 L 54.086131,38.778484 L 66.797301,65.939377 L 96.377951,70.866142 z"
           clip-path="url(#clipPath16165)" />
      </g>
    </g>
  </g>
</svg>
